HIERARCHY
ROOT hip
{
  OFFSET 0 0 0
  CHANNELS 6 Xposition Yposition Zposition Zrotation Yrotation Xrotation
  JOINT abdomen
  {
    OFFSET 0 20.6881 -0.73152
    CHANNELS 3 Zrotation Xrotation Yrotation
    JOINT chest
    {
      OFFSET 0 11.7043 -0.48768
      CHANNELS 3 Zrotation Xrotation Yrotation
      JOINT neck
      {
        OFFSET 0 22.1894 -2.19456
        CHANNELS 3 Zrotation Xrotation Yrotation
        JOINT head
        {
          OFFSET -0.24384 7.07133 1.2192
          CHANNELS 3 Zrotation Xrotation Yrotation
          JOINT leftEye
          {
            OFFSET 4.14528 8.04674 8.04672
            CHANNELS 3 Zrotation Xrotation Yrotation
            End Site
            {
              OFFSET 1 0 0
            }
          }
          JOINT rightEye
          {
            OFFSET -3.6576 8.04674 8.04672
            CHANNELS 3 Zrotation Xrotation Yrotation
            End Site
            {
              OFFSET 1 0 0
            }
          }
        }
      }
      JOINT rCollar
      {
        OFFSET -2.68224 19.2634 -4.8768
        CHANNELS 3 Zrotation Xrotation Yrotation
        JOINT rShldr
        {
          OFFSET -8.77824 -1.95073 1.46304
          CHANNELS 3 Zrotation Xrotation Yrotation
          JOINT rForeArm
          {
            OFFSET -28.1742 -1.7115 0.48768
            CHANNELS 3 Zrotation Xrotation Yrotation
            JOINT rHand
            {
              OFFSET -22.5879 0.773209 7.07136
              CHANNELS 3 Zrotation Xrotation Yrotation
              JOINT rThumb1
              {
                OFFSET -1.2192 -0.487915 3.41376
                CHANNELS 3 Zrotation Xrotation Yrotation
                JOINT rThumb2
                {
                  OFFSET -3.37035 -0.52449 3.41376
                  CHANNELS 3 Zrotation Xrotation Yrotation
                  End Site
                  {
                    OFFSET -1.78271 -1.18214 1.43049
                  }
                }
              }
              JOINT rIndex1
              {
                OFFSET -7.75947 0.938293 5.60832
                CHANNELS 3 Zrotation Xrotation Yrotation
                JOINT rIndex2
                {
                  OFFSET -2.54057 -0.884171 1.56538
                  CHANNELS 3 Zrotation Xrotation Yrotation
                  End Site
                  {
                    OFFSET -1.62519 -0.234802 1.16502
                  }
                }
              }
              JOINT rMid1
              {
                OFFSET -8.24714 1.18213 3.41376
                CHANNELS 3 Zrotation Xrotation Yrotation
                JOINT rMid2
                {
                  OFFSET -3.10165 -0.590103 1.0647
                  CHANNELS 3 Zrotation Xrotation Yrotation
                  End Site
                  {
                    OFFSET -2.48547 -0.328903 0.83742
                  }
                }
              }
              JOINT rRing1
              {
                OFFSET -8.82822 0.546677 1.51678
                CHANNELS 3 Zrotation Xrotation Yrotation
                JOINT rRing2
                {
                  OFFSET -2.60934 -0.819778 -0.0198488
                  CHANNELS 3 Zrotation Xrotation Yrotation
                  End Site
                  {
                    OFFSET -2.33842 -0.294052 0.168128
                  }
                }
              }
              JOINT rPinky1
              {
                OFFSET -8.27202 -0.0477905 -0.4584
                CHANNELS 3 Zrotation Xrotation Yrotation
                JOINT rPinky2
                {
                  OFFSET -1.82734 -0.647385 -0.700984
                  CHANNELS 3 Zrotation Xrotation Yrotation
                  End Site
                  {
                    OFFSET -1.69225 -0.51767 -0.607171
                  }
                }
              }
            }
          }
        }
      }
      JOINT lCollar
      {
        OFFSET 2.68224 19.2634 -4.8768
        CHANNELS 3 Zrotation Xrotation Yrotation
        JOINT lShldr
        {
          OFFSET 8.77824 -1.95073 1.46304
          CHANNELS 3 Zrotation Xrotation Yrotation
          JOINT lForeArm
          {
            OFFSET 28.1742 -1.7115 0.48768
            CHANNELS 3 Zrotation Xrotation Yrotation
            JOINT lHand
            {
              OFFSET 22.5879 0.773209 7.07136
              CHANNELS 3 Zrotation Xrotation Yrotation
              JOINT lThumb1
              {
                OFFSET 1.2192 -0.487915 3.41376
                CHANNELS 3 Zrotation Xrotation Yrotation
                JOINT lThumb2
                {
                  OFFSET 3.37035 -0.52449 3.41376
                  CHANNELS 3 Zrotation Xrotation Yrotation
                  End Site
                  {
                    OFFSET 1.78271 -1.18214 1.43049
                  }
                }
              }
              JOINT lIndex1
              {
                OFFSET 7.75947 0.938293 5.60832
                CHANNELS 3 Zrotation Xrotation Yrotation
                JOINT lIndex2
                {
                  OFFSET 2.54057 -0.884171 1.56538
                  CHANNELS 3 Zrotation Xrotation Yrotation
                  End Site
                  {
                    OFFSET 1.62519 -0.234802 1.16502
                  }
                }
              }
              JOINT lMid1
              {
                OFFSET 8.24714 1.18213 3.41376
                CHANNELS 3 Zrotation Xrotation Yrotation
                JOINT lMid2
                {
                  OFFSET 3.10165 -0.590103 1.0647
                  CHANNELS 3 Zrotation Xrotation Yrotation
                  End Site
                  {
                    OFFSET 2.48547 -0.328903 0.83742
                  }
                }
              }
              JOINT lRing1
              {
                OFFSET 8.82822 0.546677 1.51678
                CHANNELS 3 Zrotation Xrotation Yrotation
                JOINT lRing2
                {
                  OFFSET 2.60934 -0.819778 -0.0198488
                  CHANNELS 3 Zrotation Xrotation Yrotation
                  End Site
                  {
                    OFFSET 2.33842 -0.294052 0.168128
                  }
                }
              }
              JOINT lPinky1
              {
                OFFSET 8.27202 -0.0477905 -0.4584
                CHANNELS 3 Zrotation Xrotation Yrotation
                JOINT lPinky2
                {
                  OFFSET 1.82734 -0.647385 -0.700984
                  CHANNELS 3 Zrotation Xrotation Yrotation
                  End Site
                  {
                    OFFSET 1.69225 -0.51767 -0.607171
                  }
                }
              }
            }
          }
        }
      }
    }
  }
  JOINT rButtock
  {
    OFFSET -8.77824 4.35084 1.2192
    CHANNELS 3 Zrotation Xrotation Yrotation
    JOINT rThigh
    {
      OFFSET 0 -1.70687 -2.19456
      CHANNELS 3 Zrotation Xrotation Yrotation
      JOINT rShin
      {
        OFFSET 0 -36.8199 0.73152
        CHANNELS 3 Zrotation Xrotation Yrotation
        JOINT rFoot
        {
          OFFSET 0.73152 -45.1104 -5.12064
          CHANNELS 3 Zrotation Xrotation Yrotation
          End Site
          {
            OFFSET -1.1221 -3.69964 12.103
          }
        }
      }
    }
  }
  JOINT lButtock
  {
    OFFSET 8.77824 4.35084 1.2192
    CHANNELS 3 Zrotation Xrotation Yrotation
    JOINT lThigh
    {
      OFFSET 0 -1.70687 -2.19456
      CHANNELS 3 Zrotation Xrotation Yrotation
      JOINT lShin
      {
        OFFSET 0 -36.8199 0.73152
        CHANNELS 3 Zrotation Xrotation Yrotation
        JOINT lFoot
        {
          OFFSET -0.73152 -45.1104 -5.12064
          CHANNELS 3 Zrotation Xrotation Yrotation
          End Site
          {
            OFFSET 1.1221 -3.69964 12.103
          }
        }
      }
    }
  }
}
MOTION
Frames:	7
Frame Time:	0.00833333
32.5386 79.9202 136.483 0.9609 -87.8939 17.2861 -4.05538 -22.3447 4.82026 -7.88824 -12.1594 -0.191449 14.7923 7.21047 17.6988 -30.2114 4.09994 32.9144 -0.0 0.0 0.0 -0.0 0.0 0.0 -1.66849e-14 -6.61894e-14 1.90492e-14 -81.8977 -67.368 -40.503 12.9465 -6.13511 -23.4573 0.00057207 -0.387771 -0.0544945 8.08992e-11 4.10488e-10 4.31746e-10 1.41807e-10 7.11999e-10 7.45488e-10 8.09033e-11 4.1049e-10 4.31731e-10 7.73091 5.47488 0.417314 8.08951e-11 4.10488e-10 4.31745e-10 2.90554 0.965183 0.102902 8.09077e-11 4.10488e-10 4.31746e-10 10.2786 0.731801 0.0259123 8.09004e-11 4.10488e-10 4.31751e-10 2.22167 -0.733487 -0.20892 -1.67119e-14 -6.62019e-14 1.89374e-14 80.3991 -60.2446 40.1063 -12.8576 -6.06844 23.2827 0.570828 -20.9591 3.08589 3.96968e-11 2.09424e-10 -3.82241e-10 7.40575e-11 3.60507e-10 -6.61835e-10 3.96931e-11 2.09422e-10 -3.82232e-10 -7.73091 5.47488 -0.417314 3.97009e-11 2.09425e-10 -3.8224e-10 -2.90554 0.965183 -0.102902 3.96904e-11 2.09425e-10 -3.82243e-10 -10.2786 0.731801 -0.0259123 3.96979e-11 2.09426e-10 -3.82253e-10 -2.22167 -0.733487 0.20892 -2.03217e-16 0.0 -3.88251e-19 1.34733 -25.6176 27.0616 -0.15401 26.5036 0.860289 -9.03903 -9.29846 -25.5551 2.03217e-16 0.0 3.88251e-19 16.9159 -10.8529 0.505773 -0.0208824 14.1729 -0.422344 1.05012 -3.34607 -0.0343762
32.5432 79.9228 136.483 0.8721 -87.9133 17.381 -4.07076 -22.3673 4.79443 -7.87948 -12.1741 -0.199371 14.8406 7.1435 17.7029 -30.2251 4.22692 32.9349 -0.0 0.0 0.0 -0.0 0.0 0.0 -2.77225e-14 -8.50343e-13 -8.72048e-14 -81.6456 -67.4201 -40.3424 13.0935 -6.24562 -23.7475 -0.000617523 -0.952685 -0.133901 -1.37838e-09 -4.71768e-10 -1.16939e-11 -2.37856e-09 -8.10887e-10 -1.94842e-11 -1.37838e-09 -4.71765e-10 -1.171e-11 7.73091 5.47488 0.417314 -1.37839e-09 -4.71767e-10 -1.16924e-11 2.90554 0.965183 0.102902 -1.37837e-09 -4.71767e-10 -1.16941e-11 10.2786 0.731801 0.0259123 -1.37838e-09 -4.71766e-10 -1.16923e-11 2.22167 -0.733487 -0.20892 -2.76904e-14 -8.5036e-13 -8.72684e-14 80.591 -60.216 40.3659 -12.9398 -6.1298 23.4446 0.584457 -21.1933 3.12375 -1.24066e-10 1.0748e-09 -1.23142e-09 -1.94789e-10 1.85261e-09 -2.13344e-09 -1.24068e-10 1.07479e-09 -1.23141e-09 -7.73091 5.47488 -0.417314 -1.2406e-10 1.0748e-09 -1.23142e-09 -2.90554 0.965183 -0.102902 -1.24071e-10 1.07479e-09 -1.23142e-09 -10.2786 0.731801 -0.0259123 -1.24062e-10 1.0748e-09 -1.23143e-09 -2.22167 -0.733487 0.20892 -2.03217e-16 0.0 -3.88251e-19 1.34341 -25.6237 27.059 -0.153851 26.4894 0.859759 -9.02838 -9.29407 -25.5319 2.03217e-16 0.0 3.88251e-19 16.9164 -10.8515 0.505617 -0.0209015 14.1695 -0.422387 1.05044 -3.34413 -0.0344529
32.5475 79.9257 136.483 0.7108 -87.9318 17.5478 -4.07276 -22.3951 4.80454 -7.86231 -12.1891 -0.196823 14.8477 7.08897 17.6908 -30.204 4.34713 32.9277 -0.0 0.0 0.0 -0.0 0.0 0.0 -2.94543e-14 -1.27937e-12 -1.51027e-13 -81.411 -67.4073 -40.173 13.2458 -6.36168 -24.0485 -0.00253178 -1.43658 -0.201941 -2.55523e-09 -1.06794e-09 -3.33443e-10 -4.41205e-09 -1.84e-09 -5.74982e-10 -2.55522e-09 -1.06794e-09 -3.33459e-10 7.73091 5.47488 0.417314 -2.55523e-09 -1.06794e-09 -3.3344e-10 2.90554 0.965183 0.102902 -2.55522e-09 -1.06794e-09 -3.33443e-10 10.2786 0.731801 0.0259123 -2.55523e-09 -1.06794e-09 -3.33443e-10 2.22167 -0.733487 -0.20892 -2.93878e-14 -1.27939e-12 -1.51076e-13 80.7502 -60.2397 40.6196 -13.0313 -6.19875 23.6247 0.595603 -21.3811 3.15423 -1.26184e-10 1.59192e-09 -1.80842e-09 -1.88523e-10 2.74331e-09 -3.13162e-09 -1.26185e-10 1.59191e-09 -1.80842e-09 -7.73091 5.47488 -0.417314 -1.26177e-10 1.59192e-09 -1.80842e-09 -2.90554 0.965183 -0.102902 -1.26188e-10 1.59192e-09 -1.80842e-09 -10.2786 0.731801 -0.0259123 -1.26178e-10 1.59192e-09 -1.80843e-09 -2.22167 -0.733487 0.20892 -2.03217e-16 0.0 -3.88251e-19 1.3411 -25.6298 27.052 -0.153712 26.4711 0.859135 -9.01533 -9.28695 -25.505 2.03217e-16 0.0 3.88251e-19 16.9173 -10.8493 0.505377 -0.0209145 14.1645 -0.422327 1.05084 -3.3414 -0.0345562
32.5517 79.9289 136.482 0.4392 -87.9498 17.8253 -4.05338 -22.4315 4.8746 -7.83242 -12.2039 -0.176879 14.7849 7.05549 17.6527 -30.1279 4.45683 32.8764 -0.0 0.0 0.0 -0.0 0.0 0.0 -1.68917e-14 -1.19137e-12 -1.54351e-13 -81.2251 -67.3033 -40.0029 13.4004 -6.48067 -24.3552 -0.00430674 -1.83391 -0.257825 -3.42187e-09 -1.29539e-09 -5.35904e-10 -5.91143e-09 -2.23284e-09 -9.2583e-10 -3.42187e-09 -1.29539e-09 -5.35918e-10 7.73091 5.47488 0.417314 -3.42188e-09 -1.29539e-09 -5.35901e-10 2.90554 0.965183 0.102902 -3.42186e-09 -1.29539e-09 -5.35903e-10 10.2786 0.731801 0.0259123 -3.42187e-09 -1.29539e-09 -5.35902e-10 2.22167 -0.733487 -0.20892 -1.68282e-14 -1.19138e-12 -1.54444e-13 80.8602 -60.355 40.8645 -13.1309 -6.27411 23.8213 0.602802 -21.5009 3.17372 1.02515e-10 1.629e-09 -1.99146e-09 2.10709e-10 2.80516e-09 -3.4447e-09 1.02514e-10 1.629e-09 -1.99145e-09 -7.73091 5.47488 -0.417314 1.0252e-10 1.629e-09 -1.99146e-09 -2.90554 0.965183 -0.102902 1.02511e-10 1.629e-09 -1.99146e-09 -10.2786 0.731801 -0.0259123 1.0252e-10 1.629e-09 -1.99146e-09 -2.22167 -0.733487 0.20892 -2.03217e-16 0.0 -3.88251e-19 1.34076 -25.6356 27.0394 -0.153609 26.4475 0.858411 -8.99925 -9.27634 -25.4735 2.03217e-16 0.0 3.88251e-19 16.9186 -10.8462 0.505031 -0.0209156 14.1576 -0.422103 1.05134 -3.33767 -0.0346932
32.5558 79.9325 136.481 0.077 -87.9683 18.1942 -4.01549 -22.4754 4.99686 -7.79176 -12.2169 -0.141645 14.6606 7.03575 17.5926 -30.0038 4.56022 32.7885 -0.0 0.0 0.0 -0.0 0.0 0.0 5.84647e-15 -7.99015e-13 -1.24508e-13 -81.0728 -67.1125 -39.8255 13.56 -6.60454 -24.6736 -0.00593681 -2.18564 -0.307316 -4.20425e-09 -1.34531e-09 -6.90284e-10 -7.26643e-09 -2.31941e-09 -1.19442e-09 -4.20424e-09 -1.3453e-09 -6.90295e-10 7.73091 5.47488 0.417314 -4.20425e-09 -1.34531e-09 -6.90282e-10 2.90554 0.965183 0.102902 -4.20424e-09 -1.34531e-09 -6.90282e-10 10.2786 0.731801 0.0259123 -4.20425e-09 -1.34531e-09 -6.90279e-10 2.22167 -0.733487 -0.20892 5.88221e-15 -7.99015e-13 -1.24681e-13 80.9292 -60.5455 41.1049 -13.2384 -6.35582 24.0344 0.6071 -21.5728 3.18542 4.8306e-10 1.4006e-09 -1.97566e-09 8.69448e-10 2.40834e-09 -3.41143e-09 4.83059e-10 1.40059e-09 -1.97565e-09 -7.73091 5.47488 -0.417314 4.83063e-10 1.40059e-09 -1.97565e-09 -2.90554 0.965183 -0.102902 4.83056e-10 1.40059e-09 -1.97565e-09 -10.2786 0.731801 -0.0259123 4.83065e-10 1.40059e-09 -1.97566e-09 -2.22167 -0.733487 0.20892 -2.03217e-16 0.0 -3.88251e-19 1.3419 -25.6412 27.022 -0.153521 26.4197 0.857604 -8.98091 -9.26357 -25.4381 2.03217e-16 0.0 3.88251e-19 16.9205 -10.8423 0.504599 -0.020907 14.1492 -0.421746 1.05191 -3.33314 -0.034857
32.5601 79.9361 136.48 -0.3474 -87.986 18.629 -3.97465 -22.5196 5.12323 -7.74857 -12.2302 -0.105117 14.5328 7.01584 17.5297 -29.8715 4.66299 32.695 -0.0 0.0 0.0 -0.0 0.0 0.0 3.0625e-14 -3.07066e-13 -8.16469e-14 -80.9021 -66.8904 -39.6338 13.7288 -6.73722 -25.0109 -0.00744791 -2.47354 -0.347845 -4.79538e-09 -1.26027e-09 -7.37771e-10 -8.29108e-09 -2.17281e-09 -1.2781e-09 -4.79537e-09 -1.26026e-09 -7.37779e-10 7.73091 5.47488 0.417314 -4.79538e-09 -1.26027e-09 -7.3777e-10 2.90554 0.965183 0.102902 -4.79536e-09 -1.26027e-09 -7.37769e-10 10.2786 0.731801 0.0259123 -4.79538e-09 -1.26027e-09 -7.37763e-10 2.22167 -0.733487 -0.20892 3.06275e-14 -3.07054e-13 -8.19016e-14 80.9933 -60.7348 41.3498 -13.3563 -6.44625 24.2683 0.610499 -21.6302 3.19476 9.19043e-10 1.04231e-09 -1.88869e-09 1.62262e-09 1.78697e-09 -3.25405e-09 9.19043e-10 1.04231e-09 -1.88868e-09 -7.73091 5.47488 -0.417314 9.19044e-10 1.04231e-09 -1.88868e-09 -2.90554 0.965183 -0.102902 9.1904e-10 1.0423e-09 -1.88868e-09 -10.2786 0.731801 -0.0259123 9.19047e-10 1.0423e-09 -1.88868e-09 -2.22167 -0.733487 0.20892 -2.03217e-16 0.0 -3.88251e-19 1.34404 -25.6473 27.0019 -0.153431 26.3895 0.856713 -8.96116 -9.24934 -25.4001 2.03217e-16 0.0 3.88251e-19 16.9225 -10.8379 0.504119 -0.0209002 14.1398 -0.421374 1.05253 -3.32815 -0.0350367
32.5647 79.9398 136.478 -0.8185 -88.0043 19.1128 -3.9466 -22.5573 5.20552 -7.7111 -12.2462 -0.08129 14.4593 6.98183 17.4833 -29.7712 4.77073 32.627 -0.0 0.0 0.0 -0.0 0.0 0.0 4.93087e-14 7.97037e-14 -4.59193e-14 -80.6598 -66.6923 -39.4191 13.9106 -6.88258 -25.3744 -0.00881271 -2.67935 -0.376835 -5.08828e-09 -1.08282e-09 -6.19553e-10 -8.79938e-09 -1.86614e-09 -1.07423e-09 -5.08827e-09 -1.08282e-09 -6.19559e-10 7.73091 5.47488 0.417314 -5.08828e-09 -1.08282e-09 -6.19553e-10 2.90554 0.965183 0.102902 -5.08827e-09 -1.08283e-09 -6.19551e-10 10.2786 0.731801 0.0259123 -5.08829e-09 -1.08283e-09 -6.19543e-10 2.22167 -0.733487 -0.20892 4.92916e-14 7.9722e-14 -4.62174e-14 81.0859 -60.8464 41.6051 -13.4868 -6.54769 24.5272 0.615067 -21.7069 3.20723 1.31406e-09 6.8977e-10 -1.8582e-09 2.30515e-09 1.17521e-09 -3.19482e-09 1.31405e-09 6.89768e-10 -1.85819e-09 -7.73091 5.47488 -0.417314 1.31405e-09 6.89765e-10 -1.85819e-09 -2.90554 0.965183 -0.102902 1.31405e-09 6.89761e-10 -1.85819e-09 -10.2786 0.731801 -0.0259123 1.31406e-09 6.89758e-10 -1.85819e-09 -2.22167 -0.733487 0.20892 -2.03217e-16 0.0 -3.88251e-19 1.34672 -25.6546 26.9814 -0.15332 26.3588 0.855738 -8.94087 -9.23433 -25.3609 2.03217e-16 0.0 3.88251e-19 16.9246 -10.8335 0.503627 -0.0209065 14.1303 -0.421104 1.05317 -3.32303 -0.0352214
